# xmcd
#
# Track frame offsets: 
#        183
#        20440
#        25638
#        48663
#        64940
#        86290
#        109630
#        126890
#        144128
#        161978
#
# Disc length: 2521 seconds
#
# Revision: 6
# Processed by: cddbd v1.5.2PL0 Copyright (c) Steve Scherf et al.
# Submitted via: ExactAudioCopy v1.1
#
DISCID=7c09d70a
DTITLE=Moore, Gary - Dirty Fingers
DYEAR=1981
DGENRE=Hard Rock
TTITLE0=Hiroshima
TTITLE1=Dirty Fingers
TTITLE2=Bad News
TTITLE3=Don't Let Me Be Misunderstood
TTITLE4=Run To Your Mama
TTITLE5=Nuclear Attack
TTITLE6=Kidnapped
TTITLE7=Really Gonna Rock
TTITLE8=Lonely Nights
TTITLE9=Rest In Peace
EXTD=YEAR: 1981
EXTT0=
EXTT1=
EXTT2=
EXTT3=
EXTT4=
EXTT5=
EXTT6=
EXTT7=
EXTT8=
EXTT9=
PLAYORDER=
